<svg viewBox="0 0 900 420" xmlns="http://www.w3.org/2000/svg" font-family="Montserrat, system-ui, sans-serif">
  <defs>
    <marker id="arrow" viewBox="0 0 10 10" refX="9" refY="5" markerWidth="7" markerHeight="7" orient="auto-start-reverse">
      <path d="M0,0 L10,5 L0,10 z" fill="#bf5af2"/>
    </marker>
  </defs>
  <style>
    .box { fill:#1c1c1e; stroke:#3a3a3f; stroke-width:1.5; }
    .box--io { fill:#2a1640; stroke:#bf5af2; stroke-width:2; }
    .t { fill:#f5f5f7; font-size:15px; font-weight:700; }
    .s { fill:#a1a1a6; font-size:11.5px; }
    .step { fill:#bf5af2; font-size:10.5px; font-weight:700; letter-spacing:1px; }
    .lk { stroke:#5a5a60; stroke-width:1.8; fill:none; marker-end:url(#arrow); }
  </style>

  <!-- fluxo principal -->
  <line class="lk" x1="215" y1="105" x2="275" y2="105"/>
  <line class="lk" x1="450" y1="145" x2="450" y2="185"/>
  <line class="lk" x1="625" y1="105" x2="685" y2="105"/>
  <line class="lk" x1="450" y1="265" x2="450" y2="305"/>
  <line class="lk" x1="310" y1="345" x2="250" y2="345"/>
  <line class="lk" x1="450" y1="105" x2="450" y2="105"/>

  <!-- 1. entrada -->
  <rect class="box--io" x="35" y="65" width="180" height="80" rx="14"/>
  <text class="step" x="55" y="90">ENTRADA</text>
  <text class="t" x="55" y="112">Áudio / vídeo</text>
  <text class="s" x="55" y="132">mp3 · wav · mp4 · lote</text>

  <!-- 2. ffmpeg -->
  <rect class="box" x="275" y="65" width="160" height="80" rx="14"/>
  <text class="step" x="295" y="90">PRÉ-PROCESSO</text>
  <text class="t" x="295" y="112">FFmpeg</text>
  <text class="s" x="295" y="132">extração e conversão</text>

  <!-- 3. whisper -->
  <rect class="box" x="465" y="65" width="160" height="80" rx="14"/>
  <text class="step" x="485" y="90">TRANSCRIÇÃO</text>
  <text class="t" x="485" y="112">faster-whisper</text>
  <text class="s" x="485" y="132">áudio → texto + timestamps</text>

  <!-- 4. pyannote -->
  <rect class="box" x="685" y="65" width="180" height="80" rx="14"/>
  <text class="step" x="705" y="90">DIARIZAÇÃO</text>
  <text class="t" x="705" y="112">Pyannote</text>
  <text class="s" x="705" y="132">quem falou · quando</text>

  <!-- seta whisper+pyannote -> merge -->
  <path class="lk" d="M 435 145 C 435 170, 450 170, 450 185" opacity="0"/>
  <line class="lk" x1="355" y1="145" x2="420" y2="190"/>
  <line class="lk" x1="775" y1="145" x2="490" y2="190"/>

  <!-- 5. merge -->
  <rect class="box" x="330" y="185" width="240" height="80" rx="14"/>
  <text class="step" x="350" y="210">ALINHAMENTO</text>
  <text class="t" x="350" y="232">Merge falante × fala</text>
  <text class="s" x="350" y="252">transcrição atribuída por falante</text>

  <!-- 6. llm -->
  <rect class="box" x="330" y="305" width="240" height="80" rx="14"/>
  <text class="step" x="350" y="330">GERAÇÃO</text>
  <text class="t" x="350" y="352">LLM · GPT ou Gemini</text>
  <text class="s" x="350" y="372">prompt estruturado da ata</text>

  <!-- 7. saída -->
  <rect class="box--io" x="35" y="305" width="215" height="80" rx="14"/>
  <text class="step" x="55" y="330">SAÍDA</text>
  <text class="t" x="55" y="352">Ata + resumo</text>
  <text class="s" x="55" y="372">markdown · decisões · pendências</text>

  <text x="450" y="410" text-anchor="middle" fill="#6e6e73" font-size="12">Pipeline 100% Python · modular · logging detalhado em cada etapa</text>
</svg>
